<svg width="32" height="18" viewBox="0 0 32 18" fill="none" xmlns="http://www.w3.org/2000/svg">
<path d="M0.292892 15.7929C-0.0976315 16.1834 -0.0976314 16.8166 0.292893 17.2071C0.683418 17.5976 1.31658 17.5976 1.70711 17.2071L0.292892 15.7929ZM16 1.5L16.7071 0.792895L16 0.0857881L15.2929 0.792895L16 1.5ZM30.2929 17.2071C30.6834 17.5976 31.3166 17.5976 31.7071 17.2071C32.0976 16.8166 32.0976 16.1834 31.7071 15.7929L30.2929 17.2071ZM1.70711 17.2071L16.7071 2.20711L15.2929 0.792895L0.292892 15.7929L1.70711 17.2071ZM15.2929 2.20711L30.2929 17.2071L31.7071 15.7929L16.7071 0.792895L15.2929 2.20711Z" fill="#2E346D" fill-opacity="0.7"/>
</svg>
