<svg width="32" height="18" viewBox="0 0 32 18" fill="none" xmlns="http://www.w3.org/2000/svg">
<path d="M31.7071 2.20711C32.0976 1.81658 32.0976 1.18342 31.7071 0.792893C31.3166 0.402369 30.6834 0.402369 30.2929 0.792893L31.7071 2.20711ZM16 16.5L15.2929 17.2071L16 17.9142L16.7071 17.2071L16 16.5ZM1.70711 0.792893C1.31658 0.402369 0.683417 0.402369 0.292893 0.792893C-0.0976311 1.18342 -0.0976311 1.81658 0.292893 2.20711L1.70711 0.792893ZM30.2929 0.792893L15.2929 15.7929L16.7071 17.2071L31.7071 2.20711L30.2929 0.792893ZM16.7071 15.7929L1.70711 0.792893L0.292893 2.20711L15.2929 17.2071L16.7071 15.7929Z" fill="#2E346D" fill-opacity="0.7"/>
</svg>
