<svg width="92" height="37" viewBox="0 0 92 37" fill="none"
    xmlns="http://www.w3.org/2000/svg">
    <g clip-path="url(#clip0_766_508)">
        <path d="M24.7334 23.5479C25.2378 23.8608 25.2371 24.5874 24.7321 24.8993L13.3399 31.9359C13.0782 32.0975 12.746 32.0975 12.4843 31.9359L1.09214 24.8993C0.587061 24.5874 0.586338 23.8608 1.09079 23.5479L12.483 16.4805C12.7454 16.3177 13.0788 16.3177 13.3412 16.4805L24.7334 23.5479Z" fill="url(#paint0_linear_766_508)"/>
        <path d="M24.7334 17.8144C25.2378 18.1274 25.2371 18.854 24.7321 19.166L13.3399 26.2025C13.0782 26.3642 12.746 26.3642 12.4843 26.2025L1.09214 19.166C0.587061 18.854 0.586338 18.1274 1.09079 17.8144L12.483 10.7471C12.7454 10.5843 13.0788 10.5843 13.3412 10.7471L24.7334 17.8144Z" fill="url(#paint1_linear_766_508)" fill-opacity="0.8"/>
        <path d="M24.7334 12.082C25.2378 12.395 25.2371 13.1216 24.7321 13.4335L13.3399 20.4701C13.0782 20.6317 12.746 20.6317 12.4843 20.4701L1.09214 13.4335C0.587061 13.1216 0.586338 12.395 1.09079 12.082L12.483 5.01465C12.7454 4.85189 13.0788 4.85189 13.3412 5.01465L24.7334 12.082Z" fill="url(#paint2_linear_766_508)"/>
        <path d="M64.3135 26.913H66.4117L60.2792 12.0811L59.2323 14.612L61.5795 20.2944H57.1378L56.4922 21.9291H62.2548L64.3135 26.913Z" fill="#2E346D"/>
        <path d="M52.5377 26.9125H50.4395L57.3798 10.127H59.4713L52.5377 26.9125Z" fill="#2E346D"/>
        <path d="M39.7873 26.9528H37.6875L44.633 15.3105H46.7261L39.7873 26.9528Z" fill="#2E346D"/>
        <path d="M44.6263 26.9528H46.7261L39.7806 15.3105H37.6875L44.6263 26.9528Z" fill="#2E346D"/>
        <path d="M72.2272 10.127H70.1289V26.9524H72.2272V10.127Z" fill="#2E346D"/>
        <path fill-rule="evenodd" clip-rule="evenodd" d="M77.7969 12.2002H83.9302C87.2285 12.2002 89.9021 14.8421 89.9021 18.1011V18.9782C89.9021 22.2372 87.2285 24.8791 83.9302 24.8791H79.8951V14.1938H77.7969V26.9524H83.9302C88.3874 26.9524 92.0004 23.3822 92.0004 18.9782V18.1011C92.0004 13.6971 88.3874 10.127 83.9302 10.127H77.7969V12.2002Z" fill="#2E346D"/>
    </g>
    <defs>
        <linearGradient id="paint0_linear_766_508" x1="24.6542" y1="24.2418" x2="0.968222" y2="24.2418" gradientUnits="userSpaceOnUse">
            <stop stop-color="#00EFC3"/>
            <stop offset="1" stop-color="#00EFC3" stop-opacity="0.05"/>
        </linearGradient>
        <linearGradient id="paint1_linear_766_508" x1="24.6277" y1="18.5181" x2="0.920825" y2="18.5181" gradientUnits="userSpaceOnUse">
            <stop stop-color="#35BEE0"/>
            <stop offset="1" stop-color="#35BEE0" stop-opacity="0.6"/>
        </linearGradient>
        <linearGradient id="paint2_linear_766_508" x1="24.868" y1="12.7414" x2="-0.000216852" y2="12.7414" gradientUnits="userSpaceOnUse">
            <stop stop-color="#6C89FF" stop-opacity="0.05"/>
            <stop offset="1" stop-color="#6C89FF"/>
        </linearGradient>
        <clipPath id="clip0_766_508">
            <rect width="92" height="37" fill="white"/>
        </clipPath>
    </defs>
</svg>
