<svg width="1370" height="240" viewBox="0 0 1370 240" fill="none" xmlns="http://www.w3.org/2000/svg">
<path d="M-0.5 165.5C-0.5 165.5 186.5 57.4999 334 71.5005C481.5 85.501 667.5 217.499 791 144.5C914.5 71.5005 1007.5 165.5 1105.5 91.5005C1162.51 48.4544 1218.84 95.9257 1255.99 143.171C1283.48 178.127 1331.84 194.607 1371.5 174.5V174.5" stroke="#2E346D" stroke-opacity="0.05" stroke-width="2"/>
<path d="M-0.5 13C-0.5 13 338 -38.9988 389 61.5007C440 162 722.5 207.5 846 134.5C969.5 61.5007 1062.5 155.5 1160.5 81.5007C1218.06 38.0372 1274.93 86.8551 1312.06 134.546C1338.59 168.608 1386.01 184 1424 163.501V163.501" stroke="#2E346D" stroke-opacity="0.05" stroke-width="2"/>
<path d="M0 240.5C0 240.5 205.996 61.142 355.305 75.1751C504.614 89.2082 692.896 221.514 817.911 148.345C942.925 75.1751 1037.07 169.393 1136.27 95.2217C1204.19 44.4341 1271.17 119.356 1306.65 171.646C1321.08 192.904 1351.53 198.755 1371 182V182" stroke="#2E346D" stroke-opacity="0.05" stroke-width="2"/>
</svg>
